<?xml version="1.0" encoding="utf-8"?>
<!-- Generator: Adobe Illustrator 25.2.1, SVG Export Plug-In . SVG Version: 6.00 Build 0)  -->
<svg version="1.1" id="Camada_1" xmlns="http://www.w3.org/2000/svg" xmlns:xlink="http://www.w3.org/1999/xlink" x="0px" y="0px"
	 viewBox="0 0 32 32" style="enable-background:new 0 0 32 32;" xml:space="preserve">
<style type="text/css">
	.st0{fill-rule:evenodd;clip-rule:evenodd;fill:#00AFB9;}
</style>

<path class="st0" d="M0,5c0-2.8,2.2-5,5-5h22c2.8,0,5,2.2,5,5v22c0,2.8-2.2,5-5,5H5c-2.8,0-5-2.2-5-5V5z M8.2,13.3V24h3.4V13.3H8.2z
	 M8,9.9c0,1.1,0.8,1.9,1.9,1.9s1.9-0.8,1.9-1.9S11,8,9.9,8C8.9,8,8,8.8,8,9.9z M20.6,24h3.2v-6.6c0-3.3-2-4.4-3.9-4.4
	c-1.7,0-2.9,1.1-3.2,1.8v-1.5h-3.2V24h3.4v-5.7c0-1.5,1-2.3,2-2.3s1.7,0.5,1.7,2.2V24z"/>
</svg>
