<?xml version="1.0" encoding="utf-8"?>
<!-- Generator: Adobe Illustrator 25.2.1, SVG Export Plug-In . SVG Version: 6.00 Build 0)  -->
<svg version="1.1" id="Camada_1" xmlns="http://www.w3.org/2000/svg" xmlns:xlink="http://www.w3.org/1999/xlink" x="0px" y="0px"
	 viewBox="0 0 32 32" style="enable-background:new 0 0 32 32;" xml:space="preserve">

<style type="text/css">
	.st0{fill-rule:evenodd;clip-rule:evenodd;fill:#00AFB9;}
</style>

<path class="st0" d="M0,5c0-2.8,2.2-5,5-5h22c2.8,0,5,2.2,5,5v22c0,2.8-2.2,5-5,5H5c-2.8,0-5-2.2-5-5V5z M8,16.2c0-4.4,3.6-8,8-8
	s8,3.6,8,8c0,3.5-2.3,6.5-5.4,7.6c-0.4,0-0.5-0.2-0.5-0.4v-2.2c0-0.7-0.2-1.2-0.5-1.5c1.8-0.2,3.6-0.8,3.6-3.9
	c0-0.9-0.3-1.6-0.8-2.2c0,0,0,0,0-0.1c0.1-0.3,0.3-1.1-0.1-2c0,0-0.7-0.2-2.2,0.8c-0.6-0.1-1.3-0.2-2-0.2c-0.7,0-1.4,0-2,0.2
	c-1.5-1-2.2-0.8-2.2-0.8c-0.4,1.1-0.2,1.9-0.1,2l0,0c-0.5,0.6-0.8,1.3-0.8,2.2c0,3.1,1.9,3.8,3.6,4c-0.2,0.2-0.4,0.5-0.5,1.1
	c-0.4,0.2-1.6,0.5-2.3-0.7c0,0-0.4-0.8-1.2-0.8c0,0-0.8,0,0,0.5c0,0,0.5,0.2,0.9,1.2c0,0,0.5,1.6,2.7,1.1v1.4c0,0.2-0.1,0.4-0.5,0.4
	C10.3,22.7,8,19.7,8,16.2z"/>
	
</svg>
